<?xml version="1.0" encoding="UTF-8" standalone="no"?>
<!-- Created with Inkscape (http://www.inkscape.org/) -->

<svg
   xmlns:dc="http://purl.org/dc/elements/1.1/"
   xmlns:cc="http://creativecommons.org/ns#"
   xmlns:rdf="http://www.w3.org/1999/02/22-rdf-syntax-ns#"
   xmlns:svg="http://www.w3.org/2000/svg"
   xmlns="http://www.w3.org/2000/svg"
   xmlns:xlink="http://www.w3.org/1999/xlink"
   xmlns:sodipodi="http://sodipodi.sourceforge.net/DTD/sodipodi-0.dtd"
   xmlns:inkscape="http://www.inkscape.org/namespaces/inkscape"
   width="1050"
   height="645"
   viewBox="0 0 1050 645"
   id="svg2"
   version="1.1"
   inkscape:version="0.91 r13725"
   sodipodi:docname="raytrace.svg">
  <sodipodi:namedview
     id="base"
     pagecolor="#ffffff"
     bordercolor="#666666"
     borderopacity="1.0"
     inkscape:pageopacity="0.0"
     inkscape:pageshadow="2"
     inkscape:zoom="0.98994949"
     inkscape:cx="302.19149"
     inkscape:cy="255.76379"
     inkscape:document-units="px"
     inkscape:current-layer="layer1"
     showgrid="true"
     inkscape:window-width="1920"
     inkscape:window-height="1053"
     inkscape:window-x="1920"
     inkscape:window-y="0"
     inkscape:window-maximized="1"
     units="px">
    <inkscape:grid
       id="grid4136"
       type="xygrid" />
  </sodipodi:namedview>
  <defs
     id="defs4">
    <linearGradient
       id="linearGradient4174"
       inkscape:collect="always">
      <stop
         id="stop4176"
         offset="0"
         style="stop-color:#1f77b4;stop-opacity:1;" />
      <stop
         id="stop4178"
         offset="1"
         style="stop-color:#1f77b4;stop-opacity:0;" />
    </linearGradient>
    <radialGradient
       gradientTransform="matrix(0.94699178,0,0,0.94699178,74.5428,166.17247)"
       gradientUnits="userSpaceOnUse"
       r="190.4996"
       fy="542.36218"
       fx="810"
       cy="542.36218"
       cx="810"
       id="radialGradient4180"
       xlink:href="#linearGradient4174"
       inkscape:collect="always" />
    <radialGradient
       gradientTransform="matrix(0.94699178,0,0,0.94699178,-0.580439,122.71686)"
       gradientUnits="userSpaceOnUse"
       r="190.4996"
       fy="542.36218"
       fx="230"
       cy="542.36218"
       cx="230"
       id="radialGradient4182"
       xlink:href="#linearGradient4174"
       inkscape:collect="always" />
    <radialGradient
       gradientTransform="matrix(0.94699178,0,0,0.94699178,24.041347,71.579307)"
       gradientUnits="userSpaceOnUse"
       r="190.4996"
       fy="821.50507"
       fx="519.14288"
       cy="821.50507"
       cx="519.14288"
       id="radialGradient4184"
       xlink:href="#linearGradient4174"
       inkscape:collect="always" />
  </defs>
  <metadata
     id="metadata7">
    <rdf:RDF>
      <cc:Work
         rdf:about="">
        <dc:format>image/svg+xml</dc:format>
        <dc:type
           rdf:resource="http://purl.org/dc/dcmitype/StillImage" />
        <dc:title />
      </cc:Work>
    </rdf:RDF>
  </metadata>
  <g
     transform="translate(0,-407.36219)"
     id="layer1"
     inkscape:groupmode="layer"
     inkscape:label="Layer 1">
    <circle
       r="179.92844"
       cy="636.32941"
       cx="217.22768"
       id="path4140"
       style="opacity:1;fill:url(#radialGradient4182);fill-opacity:1;stroke:#000000;stroke-width:3.78796721;stroke-miterlimit:4;stroke-dasharray:3.78796713, 15.15186854;stroke-dashoffset:0;stroke-opacity:1" />
    <circle
       r="179.92844"
       cy="679.78497"
       cx="841.60614"
       id="path4157"
       style="opacity:1;fill:url(#radialGradient4180);fill-opacity:1;stroke:#000000;stroke-width:3.78796721;stroke-miterlimit:4;stroke-dasharray:3.78796713, 15.15186854;stroke-dashoffset:0;stroke-opacity:1" />
    <circle
       r="179.92844"
       cy="849.53784"
       cx="515.66541"
       id="path4140-6"
       style="opacity:1;fill:url(#radialGradient4184);fill-opacity:1;stroke:#000000;stroke-width:3.78796721;stroke-miterlimit:4;stroke-dasharray:3.78796713, 15.15186854;stroke-dashoffset:0;stroke-opacity:1" />
    <path
       inkscape:connector-curvature="0"
       id="path4190"
       d="m 14.571429,683.17392 830.076561,0"
       style="fill:none;fill-rule:evenodd;stroke:#000000;stroke-width:6.02805614;stroke-linecap:butt;stroke-linejoin:miter;stroke-miterlimit:4;stroke-dasharray:none;stroke-opacity:1" />
    <path
       inkscape:connector-curvature="0"
       id="path4192"
       d="m 42.981182,683.679 347.545988,0"
       style="fill:none;fill-rule:evenodd;stroke:#d62728;stroke-width:9.46991825;stroke-linecap:butt;stroke-linejoin:miter;stroke-miterlimit:4;stroke-dasharray:none;stroke-opacity:1" />
    <path
       inkscape:connector-curvature="0"
       id="path4194"
       d="m 445.45269,683.679 142.04877,0"
       style="fill:none;fill-rule:evenodd;stroke:#d62728;stroke-width:9.46991825;stroke-linecap:butt;stroke-linejoin:miter;stroke-miterlimit:4;stroke-dasharray:none;stroke-opacity:1" />
    <path
       inkscape:connector-curvature="0"
       id="path4215"
       d="m 516.47707,854.13752 0,-160.9886"
       style="fill:none;fill-rule:evenodd;stroke:#d62728;stroke-width:5.68195057;stroke-linecap:butt;stroke-linejoin:miter;stroke-miterlimit:4;stroke-dasharray:none;stroke-opacity:1" />
    <path
       inkscape:connector-curvature="0"
       id="path4217"
       d="m 213.4397,636.32941 0,37.87967"
       style="fill:none;fill-rule:evenodd;stroke:#d62728;stroke-width:5.68195057;stroke-linecap:butt;stroke-linejoin:miter;stroke-miterlimit:4;stroke-dasharray:none;stroke-opacity:1" />
    <path
       sodipodi:nodetypes="cccccc"
       inkscape:connector-curvature="0"
       id="path4221"
       d="m 539.54309,732.51672 -22.99838,-45.99675 -22.99837,45.99675 22.94049,-7.37572 0.11577,0 22.94049,7.37572"
       style="fill:#d62728;fill-opacity:1;fill-rule:evenodd;stroke:none;stroke-width:1px;stroke-linecap:butt;stroke-linejoin:miter;stroke-opacity:1" />
    <path
       sodipodi:nodetypes="cccccc"
       inkscape:connector-curvature="0"
       id="path4221-5"
       d="m 236.27901,635.64248 -22.99837,45.99675 -22.99837,-45.99675 22.94049,7.37572 0.11577,0 22.94048,-7.37572"
       style="fill:#d62728;fill-opacity:1;fill-rule:evenodd;stroke:none;stroke-width:1px;stroke-linecap:butt;stroke-linejoin:miter;stroke-opacity:1" />
    <g
       id="g4277"
       style="fill:#d62728;fill-opacity:1"
       transform="matrix(2.2281965,0,0,2.2281965,-129.25899,33.381094)">
      <g
         word-spacing="normal"
         letter-spacing="normal"
         font-size-adjust="none"
         font-stretch="normal"
         font-weight="normal"
         font-variant="normal"
         font-style="normal"
         stroke-miterlimit="10.433"
         xml:space="preserve"
         transform="matrix(1.0629921,0,0,-1.0629921,-186.02362,789.27165)"
         id="content"
         style="font-style:normal;font-variant:normal;font-weight:normal;font-stretch:normal;letter-spacing:normal;word-spacing:normal;text-anchor:start;fill:#d62728;fill-opacity:1;fill-rule:evenodd;stroke:#000000;stroke-linecap:butt;stroke-linejoin:miter;stroke-miterlimit:10.43299961;stroke-dasharray:none;stroke-dashoffset:0;stroke-opacity:1"><path
           id="path4280"
           d="m 467.91,440.02 0,0.01 0,0 0,0.01 0,0.01 -0.01,0.01 0,0.01 0,0.02 0,0.02 0,0.02 -0.01,0.02 0,0.02 -0.01,0.02 -0.01,0.03 -0.01,0.02 -0.01,0.03 -0.01,0.02 -0.01,0.02 -0.02,0.03 -0.02,0.02 -0.02,0.03 -0.02,0.02 -0.01,0.01 -0.02,0.01 -0.01,0.01 -0.01,0.01 -0.02,0.01 -0.01,0.01 -0.02,0.01 -0.02,0.01 -0.01,0.01 -0.02,0.01 -0.02,0.01 -0.02,0 -0.02,0.01 -0.02,0.01 -0.03,0 -0.02,0.01 -0.02,0 -0.03,0.01 -0.02,0 -0.03,0 -0.03,0.01 -0.02,0 -0.03,0 -0.03,0 c -1.15,0 -4.78,-0.4 -6.08,-0.5 -0.4,-0.05 -0.95,-0.1 -0.95,-1 0,-0.59 0.45,-0.59 1.2,-0.59 2.39,0 2.49,-0.35 2.49,-0.85 0,-0.35 -0.45,-2.04 -0.7,-3.09 l -4.08,-16.24 c -0.6,-2.49 -0.8,-3.28 -0.8,-5.03 0,-4.73 2.64,-7.82 6.33,-7.82 l 0,1.1 c -1.7,0 -3.34,1.34 -3.34,5.03 0,0.95 0,1.89 0.8,5.03 l 1.09,4.58 c 0.3,1.1 0.3,1.2 0.75,1.75 2.44,3.24 4.68,3.98 5.98,3.98 1.79,0 3.14,-1.49 3.14,-4.68 0,-2.94 -1.65,-8.67 -2.54,-10.56 -1.65,-3.34 -3.94,-5.13 -5.88,-5.13 l 0,-1.1 c 5.88,0 12,7.43 12,14.6 0,4.53 -2.64,7.97 -6.62,7.97 -2.29,0 -4.34,-1.45 -5.83,-2.99 z"
           style="fill:#d62728;fill-opacity:1;stroke-width:0"
           inkscape:connector-curvature="0" /></g>    </g>
  </g>
</svg>
