<?xml version="1.0" encoding="UTF-8" standalone="no"?>
<!-- Created with Inkscape (http://www.inkscape.org/) -->

<svg
   xmlns:dc="http://purl.org/dc/elements/1.1/"
   xmlns:cc="http://creativecommons.org/ns#"
   xmlns:rdf="http://www.w3.org/1999/02/22-rdf-syntax-ns#"
   xmlns:svg="http://www.w3.org/2000/svg"
   xmlns="http://www.w3.org/2000/svg"
   xmlns:sodipodi="http://sodipodi.sourceforge.net/DTD/sodipodi-0.dtd"
   xmlns:inkscape="http://www.inkscape.org/namespaces/inkscape"
   width="480"
   height="430"
   viewBox="0 0 480 429.99999"
   id="svg2"
   version="1.1"
   inkscape:version="0.92.3 (2405546, 2018-03-11)"
   sodipodi:docname="refine.svg">
  <sodipodi:namedview
     id="base"
     pagecolor="#ffffff"
     bordercolor="#666666"
     borderopacity="1.0"
     inkscape:pageopacity="0.0"
     inkscape:pageshadow="2"
     inkscape:zoom="1.28"
     inkscape:cx="188.53959"
     inkscape:cy="136.54059"
     inkscape:document-units="px"
     inkscape:current-layer="layer1"
     showgrid="true"
     units="px"
     width="28in"
     inkscape:window-width="959"
     inkscape:window-height="1025"
     inkscape:window-x="335"
     inkscape:window-y="-8"
     inkscape:window-maximized="1"
     showguides="false">
    <inkscape:grid
       id="grid4136"
       type="xygrid" />
  </sodipodi:namedview>
  <defs
     id="defs4" />
  <metadata
     id="metadata7">
    <rdf:RDF>
      <cc:Work
         rdf:about="">
        <dc:format>image/svg+xml</dc:format>
        <dc:type
           rdf:resource="http://purl.org/dc/dcmitype/StillImage" />
        <dc:title />
      </cc:Work>
    </rdf:RDF>
  </metadata>
  <g
     transform="translate(0,-622.36221)"
     id="layer1"
     inkscape:groupmode="layer"
     inkscape:label="Layer 1">
    <g
       id="g1345-8-9"
       style="stroke-width:2.50791121;stroke-miterlimit:4;stroke-dasharray:none"
       transform="matrix(2.7911674,0,0,2.7911674,-3023.6113,-1700.2186)">
      <path
         d="m -1398.6625,-403.80612 a 17.219837,13.425265 0 0 1 2.8976,18.8511 17.219837,13.425265 0 0 1 -24.1792,2.25949 17.219837,13.425265 0 0 1 -2.8986,-18.851 17.219837,13.425265 0 0 1 24.179,-2.26032"
         sodipodi:open="true"
         sodipodi:end="5.3784415"
         sodipodi:start="5.3785288"
         sodipodi:ry="13.425265"
         sodipodi:rx="17.219837"
         sodipodi:cy="-393.25101"
         sodipodi:cx="-1409.3036"
         sodipodi:type="arc"
         id="path4546-8-7-0-2"
         style="fill:#cecece;fill-opacity:1;stroke:#000000;stroke-width:2.5082891;stroke-miterlimit:4;stroke-dasharray:none;stroke-dashoffset:0;stroke-opacity:1"
         transform="matrix(-0.93168891,-0.36325718,0.34028096,-0.94032381,0,0)" />
      <path
         d="m -1390.2832,-416.3024 a 17.219837,13.425265 0 0 1 2.8976,18.8511 17.219837,13.425265 0 0 1 -24.1792,2.2595 17.219837,13.425265 0 0 1 -2.8987,-18.85101 17.219837,13.425265 0 0 1 24.1791,-2.26032"
         sodipodi:open="true"
         sodipodi:end="5.3784415"
         sodipodi:start="5.3785288"
         sodipodi:ry="13.425265"
         sodipodi:rx="17.219837"
         sodipodi:cy="-405.74728"
         sodipodi:cx="-1400.9243"
         sodipodi:type="arc"
         id="path4546-1-7-5-9-7"
         style="fill:#cecece;fill-opacity:1;stroke:#000000;stroke-width:2.5082891;stroke-miterlimit:4;stroke-dasharray:none;stroke-dashoffset:0;stroke-opacity:1"
         transform="matrix(-0.93168891,-0.36325718,0.34028096,-0.94032381,0,0)" />
      <path
         d="m -1394.7035,-391.93915 a 17.219837,13.425265 0 0 1 2.8976,18.85111 17.219837,13.425265 0 0 1 -24.1792,2.25949 17.219837,13.425265 0 0 1 -2.8987,-18.85101 17.219837,13.425265 0 0 1 24.1791,-2.26031"
         sodipodi:open="true"
         sodipodi:end="5.3784415"
         sodipodi:start="5.3785288"
         sodipodi:ry="13.425265"
         sodipodi:rx="17.219837"
         sodipodi:cy="-381.38403"
         sodipodi:cx="-1405.3446"
         sodipodi:type="arc"
         id="path4546-2-9-3-3-1"
         style="fill:#cecece;fill-opacity:1;stroke:#000000;stroke-width:2.5082891;stroke-miterlimit:4;stroke-dasharray:none;stroke-dashoffset:0;stroke-opacity:1"
         transform="matrix(-0.93168891,-0.36325718,0.34028096,-0.94032381,0,0)" />
      <path
         d="m -1376.6764,-395.89481 a 17.219837,13.425265 0 0 1 2.8976,18.85111 17.219837,13.425265 0 0 1 -24.1792,2.25949 17.219837,13.425265 0 0 1 -2.8987,-18.85101 17.219837,13.425265 0 0 1 24.1791,-2.26031"
         sodipodi:open="true"
         sodipodi:end="5.3784415"
         sodipodi:start="5.3785288"
         sodipodi:ry="13.425265"
         sodipodi:rx="17.219837"
         sodipodi:cy="-385.33969"
         sodipodi:cx="-1387.3175"
         sodipodi:type="arc"
         id="path4546-7-2-5-7-9"
         style="fill:#cecece;fill-opacity:1;stroke:#000000;stroke-width:2.5082891;stroke-miterlimit:4;stroke-dasharray:none;stroke-dashoffset:0;stroke-opacity:1"
         transform="matrix(-0.93168891,-0.36325718,0.34028096,-0.94032381,0,0)" />
      <path
         d="m -1376.2921,-413.87506 a 17.219837,13.425265 0 0 1 2.8976,18.8511 17.219837,13.425265 0 0 1 -24.1792,2.25949 17.219837,13.425265 0 0 1 -2.8987,-18.851 17.219837,13.425265 0 0 1 24.1791,-2.26032"
         sodipodi:open="true"
         sodipodi:end="5.3784415"
         sodipodi:start="5.3785288"
         sodipodi:ry="13.425265"
         sodipodi:rx="17.219837"
         sodipodi:cy="-403.31995"
         sodipodi:cx="-1386.9332"
         sodipodi:type="arc"
         id="path4546-0-0-6-3-7"
         style="fill:#cecece;fill-opacity:1;stroke:#000000;stroke-width:2.5082891;stroke-miterlimit:4;stroke-dasharray:none;stroke-dashoffset:0;stroke-opacity:1"
         transform="matrix(-0.93168891,-0.36325718,0.34028096,-0.94032381,0,0)" />
      <path
         d="m -1384.7285,-400.14342 a 22.601036,14.998538 0 0 1 3.8031,21.06021 22.601036,14.998538 0 0 1 -31.7352,2.52428 22.601036,14.998538 0 0 1 -3.8045,-21.06011 22.601036,14.998538 0 0 1 31.735,-2.52519"
         sodipodi:open="true"
         sodipodi:end="5.3784415"
         sodipodi:start="5.3785288"
         sodipodi:ry="14.998538"
         sodipodi:rx="22.601036"
         sodipodi:cy="-388.35138"
         sodipodi:cx="-1398.6949"
         sodipodi:type="arc"
         id="path4546-0-9-6-7-1-9-9"
         style="fill:#cecece;fill-opacity:1;stroke:none;stroke-width:2.5082891;stroke-miterlimit:4;stroke-dasharray:none;stroke-dashoffset:0;stroke-opacity:1"
         transform="matrix(-0.93168891,-0.36325718,0.34028096,-0.94032381,0,0)" />
      <path
         d="m -1381.1472,-411.85174 a 22.601036,14.998538 0 0 1 3.8031,21.06022 22.601036,14.998538 0 0 1 -31.7352,2.52428 22.601036,14.998538 0 0 1 -3.8045,-21.06011 22.601036,14.998538 0 0 1 31.735,-2.5252"
         sodipodi:open="true"
         sodipodi:end="5.3784415"
         sodipodi:start="5.3785288"
         sodipodi:ry="14.998538"
         sodipodi:rx="22.601036"
         sodipodi:cy="-400.05969"
         sodipodi:cx="-1395.1136"
         sodipodi:type="arc"
         id="path4546-0-9-0-5-2-76-6"
         style="fill:#cecece;fill-opacity:1;stroke:none;stroke-width:2.5082891;stroke-miterlimit:4;stroke-dasharray:none;stroke-dashoffset:0;stroke-opacity:1"
         transform="matrix(-0.93168891,-0.36325718,0.34028096,-0.94032381,0,0)" />
    </g>
    <path
       transform="matrix(-0.93168891,-0.36325718,0.34028096,-0.94032381,0,0)"
       style="fill:#cecece;fill-opacity:1;stroke:none;stroke-width:6.97897005;stroke-miterlimit:4;stroke-dasharray:none;stroke-dashoffset:0;stroke-opacity:1"
       id="path4546-0-9-2-2-7-7"
       sodipodi:type="arc"
       sodipodi:cx="-486.38458"
       sodipodi:cy="-600.0885"
       sodipodi:rx="63.083275"
       sodipodi:ry="41.86343"
       sodipodi:start="5.3785288"
       sodipodi:end="5.3784415"
       sodipodi:open="true"
       d="m -447.40191,-633.00207 a 63.083275,41.86343 0 0 1 10.61507,58.78259 63.083275,41.86343 0 0 1 -88.57825,7.04568 63.083275,41.86343 0 0 1 -10.61893,-58.78229 63.083275,41.86343 0 0 1 88.57778,-7.04824" />
    <path
       transform="matrix(-0.93168891,-0.36325718,0.34028096,-0.94032381,0,0)"
       style="fill:#cecece;fill-opacity:1;stroke:none;stroke-width:6.97897005;stroke-miterlimit:4;stroke-dasharray:none;stroke-dashoffset:0;stroke-opacity:1"
       id="path4546-0-9-3-3-9-8-1"
       sodipodi:type="arc"
       sodipodi:cx="-476.62164"
       sodipodi:cy="-627.6908"
       sodipodi:rx="63.083275"
       sodipodi:ry="41.86343"
       sodipodi:start="5.3785288"
       sodipodi:end="5.3784415"
       sodipodi:open="true"
       d="m -437.63898,-660.60437 a 63.083275,41.86343 0 0 1 10.61507,58.7826 63.083275,41.86343 0 0 1 -88.57824,7.04567 63.083275,41.86343 0 0 1 -10.61893,-58.78228 63.083275,41.86343 0 0 1 88.57777,-7.04824" />
    <path
       inkscape:connector-curvature="0"
       id="path4243-6"
       d="m 95.716991,774.35 280.999999,-60"
       style="fill:none;fill-rule:evenodd;stroke:#1f77b4;stroke-width:20;stroke-linecap:butt;stroke-linejoin:miter;stroke-miterlimit:4;stroke-dasharray:none;stroke-opacity:1" />
    <path
       inkscape:connector-curvature="0"
       id="path4243"
       d="m 96.966991,953.86172 280.999999,-60"
       style="fill:none;fill-rule:evenodd;stroke:#1f77b4;stroke-width:20;stroke-linecap:butt;stroke-linejoin:miter;stroke-miterlimit:4;stroke-dasharray:none;stroke-opacity:1" />
    <rect
       y="661.86169"
       x="96.966988"
       height="360"
       width="280"
       id="rect4220"
       style="fill:none;fill-opacity:1;stroke:#000000;stroke-width:7;stroke-miterlimit:4;stroke-dasharray:none;stroke-dashoffset:0;stroke-opacity:1" />
    <path
       inkscape:connector-curvature="0"
       id="path4222"
       d="M 96.966991,841.86172 H 376.96699"
       style="fill:none;fill-rule:evenodd;stroke:#000000;stroke-width:7;stroke-linecap:butt;stroke-linejoin:miter;stroke-miterlimit:4;stroke-dasharray:7, 14;stroke-dashoffset:0;stroke-opacity:1" />
    <path
       inkscape:connector-curvature="0"
       id="path4224"
       d="M 22.321332,789.69088 206.07021,750.20255 223.61588,746.43192 464.7432,694.61275"
       style="fill:none;fill-rule:evenodd;stroke:#000000;stroke-width:7;stroke-linecap:butt;stroke-linejoin:miter;stroke-miterlimit:4;stroke-dasharray:none;stroke-opacity:1"
       sodipodi:nodetypes="cccc" />
    <path
       inkscape:connector-curvature="0"
       id="path4224-3"
       d="M 21.888868,969.59611 465.09198,874.51797"
       style="fill:none;fill-rule:evenodd;stroke:#000000;stroke-width:7;stroke-linecap:butt;stroke-linejoin:miter;stroke-miterlimit:4;stroke-dasharray:none;stroke-opacity:1"
       sodipodi:nodetypes="cc" />
    <g
       id="g4283"
       transform="matrix(1.5902962,0,0,1.5902962,-341.94313,-1383.4326)"
       style="fill:#175784;fill-opacity:1">
      <g
         word-spacing="normal"
         letter-spacing="normal"
         font-size-adjust="none"
         font-stretch="normal"
         font-weight="normal"
         font-variant="normal"
         font-style="normal"
         stroke-miterlimit="10.433"
         xml:space="preserve"
         transform="matrix(1.0928571,0,0,-1.0928571,-191.25,1890)"
         id="content"
         style="font-style:normal;font-variant:normal;font-weight:normal;font-stretch:normal;letter-spacing:normal;word-spacing:normal;text-anchor:start;fill:#175784;fill-opacity:1;fill-rule:evenodd;stroke:#000000;stroke-linecap:butt;stroke-linejoin:miter;stroke-miterlimit:10.43299961;stroke-dasharray:none;stroke-dashoffset:0;stroke-opacity:1"><path
           id="path4286"
           d="m 468.85,440.02 v 0.01 0 0.01 0.01 0.01 0.01 0.02 0.02 l -0.01,0.02 v 0.02 l -0.01,0.02 v 0.02 l -0.01,0.03 -0.01,0.02 -0.01,0.03 -0.01,0.02 -0.02,0.02 -0.02,0.03 -0.01,0.02 -0.02,0.03 -0.03,0.02 -0.01,0.01 -0.01,0.01 -0.01,0.01 -0.02,0.01 -0.01,0.01 -0.02,0.01 -0.02,0.01 -0.01,0.01 -0.02,0.01 -0.02,0.01 -0.02,0.01 h -0.02 l -0.02,0.01 -0.02,0.01 h -0.02 l -0.02,0.01 h -0.03 l -0.02,0.01 h -0.03 -0.02 l -0.03,0.01 h -0.03 -0.03 -0.03 c -1.14,0 -4.78,-0.4 -6.07,-0.5 -0.4,-0.05 -0.95,-0.1 -0.95,-1.04 0,-0.55 0.5,-0.55 1.25,-0.55 2.39,0 2.44,-0.45 2.44,-0.85 l -0.15,-0.99 -6.28,-24.91 c -0.15,-0.55 -0.25,-0.9 -0.25,-1.69 0,-2.84 2.19,-4.59 4.54,-4.59 1.64,0 2.88,1 3.73,2.79 0.9,1.89 1.5,4.78 1.5,4.88 0,0.5 -0.45,0.5 -0.6,0.5 -0.5,0 -0.55,-0.2 -0.7,-0.89 -0.85,-3.24 -1.79,-6.18 -3.78,-6.18 -1.5,0 -1.5,1.59 -1.5,2.29 0,1.2 0.05,1.45 0.3,2.39 z"
           inkscape:connector-curvature="0"
           style="fill:#175784;fill-opacity:1;stroke-width:0" /></g>    </g>
    <g
       id="g4338"
       transform="translate(94.940141,-767.85758)"
       style="fill:#000000;fill-opacity:1">
      <g
         id="g4340"
         transform="matrix(1.0928571,0,0,-1.0928571,-191.25,1890)"
         xml:space="preserve"
         stroke-miterlimit="10.433"
         font-style="normal"
         font-variant="normal"
         font-weight="normal"
         font-stretch="normal"
         font-size-adjust="none"
         letter-spacing="normal"
         word-spacing="normal"
         style="font-style:normal;font-variant:normal;font-weight:normal;font-stretch:normal;letter-spacing:normal;word-spacing:normal;text-anchor:start;fill:#000000;fill-opacity:1;fill-rule:evenodd;stroke:#000000;stroke-linecap:butt;stroke-linejoin:miter;stroke-miterlimit:10.43299961;stroke-dasharray:none;stroke-dashoffset:0;stroke-opacity:1"><path
           d="m 471.09,422.19 h 4.84 c 3.73,0 4.13,-0.8 4.13,-2.24 0,-0.35 0,-0.95 -0.35,-2.44 -0.1,-0.25 -0.15,-0.45 -0.15,-0.55 0,-0.4 0.3,-0.6 0.6,-0.6 0.5,0 0.5,0.15 0.75,1.05 l 2.73,10.8 c 0.16,0.56 0.16,0.65 0.16,0.8 0,0.1 -0.1,0.55 -0.6,0.55 -0.5,0 -0.55,-0.25 -0.75,-1.04 -1.04,-3.89 -2.19,-4.79 -6.43,-4.79 h -4.53 l 3.19,12.66 c 0.45,1.74 0.5,1.94 2.69,1.94 h 6.58 c 6.12,0 7.27,-1.65 7.27,-5.48 0,-1.15 0,-1.35 -0.15,-2.69 -0.1,-0.65 -0.1,-0.75 -0.1,-0.9 0,-0.25 0.15,-0.6 0.6,-0.6 0.54,0 0.59,0.3 0.7,1.25 l 0.99,8.62 c 0.15,1.34 -0.1,1.34 -1.35,1.34 h -24.4 c -1,0 -1.5,0 -1.5,-0.99 0,-0.55 0.45,-0.55 1.4,-0.55 1.84,0 3.23,0 3.23,-0.9 0,-0.2 0,-0.3 -0.25,-1.19 l -6.57,-26.35 c -0.5,-1.95 -0.6,-2.35 -4.53,-2.35 -0.85,0 -1.4,0 -1.4,-0.94 0,-0.6 0.6,-0.6 0.75,-0.6 h 14 c 0.45,0 1.04,0 1.04,0.95 0,0.39 -0.29,0.5 -0.29,0.55 -0.16,0.04 -0.25,0.04 -1.4,0.04 -1.1,0 -1.35,0 -2.59,0.1 -1.44,0.15 -1.6,0.35 -1.6,1 0,0.1 0,0.4 0.2,1.15 z"
           id="path4342"
           inkscape:connector-curvature="0"
           style="fill:#000000;fill-opacity:1;stroke-width:0" /><path
           d="m 499.68,421.18 v 0.04 0.04 0.04 0.04 0.04 0.04 0.03 0.04 l -0.01,0.03 v 0.03 0.04 0.03 l -0.01,0.02 v 0.03 0.03 l -0.01,0.03 v 0.02 0.02 l -0.02,0.05 -0.01,0.04 -0.01,0.04 -0.02,0.03 -0.02,0.03 -0.02,0.03 -0.03,0.03 -0.02,0.02 -0.03,0.02 -0.04,0.02 -0.03,0.01 -0.04,0.01 -0.05,0.02 h -0.05 l -0.02,0.01 h -0.03 l -0.03,0.01 h -0.02 -0.03 -0.03 -0.04 l -0.03,0.01 h -0.03 -0.04 -0.03 -0.04 -0.04 -0.04 -0.04 -0.04 -0.05 -0.04 c -2.24,-2.19 -5.41,-2.23 -6.84,-2.23 v -1.25 c 0.84,0 3.14,0 5.06,0.97 v -17.78 c 0,-1.15 0,-1.61 -3.49,-1.61 h -1.33 V 399 h 12.45 v 1.25 h -1.32 c -3.49,0 -3.49,0.46 -3.49,1.61 z"
           id="path4344"
           inkscape:connector-curvature="0"
           style="fill:#000000;fill-opacity:1;stroke-width:0" /></g>    </g>
    <g
       id="g4404"
       transform="translate(90.536941,-587.7653)"
       style="fill:#000000;fill-opacity:1">
      <g
         word-spacing="normal"
         letter-spacing="normal"
         font-size-adjust="none"
         font-stretch="normal"
         font-weight="normal"
         font-variant="normal"
         font-style="normal"
         stroke-miterlimit="10.433"
         xml:space="preserve"
         transform="matrix(1.0928571,0,0,-1.0928571,-191.25,1890)"
         id="g4406"
         style="font-style:normal;font-variant:normal;font-weight:normal;font-stretch:normal;letter-spacing:normal;word-spacing:normal;text-anchor:start;fill:#000000;fill-opacity:1;fill-rule:evenodd;stroke:#000000;stroke-linecap:butt;stroke-linejoin:miter;stroke-miterlimit:10.43299961;stroke-dasharray:none;stroke-dashoffset:0;stroke-opacity:1"><path
           id="path4408"
           d="m 471.09,422.19 h 4.84 c 3.73,0 4.13,-0.8 4.13,-2.24 0,-0.35 0,-0.95 -0.35,-2.44 -0.1,-0.25 -0.15,-0.45 -0.15,-0.55 0,-0.4 0.3,-0.6 0.6,-0.6 0.5,0 0.5,0.15 0.75,1.05 l 2.73,10.8 c 0.16,0.56 0.16,0.65 0.16,0.8 0,0.1 -0.1,0.55 -0.6,0.55 -0.5,0 -0.55,-0.25 -0.75,-1.04 -1.04,-3.89 -2.19,-4.79 -6.43,-4.79 h -4.53 l 3.19,12.66 c 0.45,1.74 0.5,1.94 2.69,1.94 h 6.58 c 6.12,0 7.27,-1.65 7.27,-5.48 0,-1.15 0,-1.35 -0.15,-2.69 -0.1,-0.65 -0.1,-0.75 -0.1,-0.9 0,-0.25 0.15,-0.6 0.6,-0.6 0.54,0 0.59,0.3 0.7,1.25 l 0.99,8.62 c 0.15,1.34 -0.1,1.34 -1.35,1.34 h -24.4 c -1,0 -1.5,0 -1.5,-0.99 0,-0.55 0.45,-0.55 1.4,-0.55 1.84,0 3.23,0 3.23,-0.9 0,-0.2 0,-0.3 -0.25,-1.19 l -6.57,-26.35 c -0.5,-1.95 -0.6,-2.35 -4.53,-2.35 -0.85,0 -1.4,0 -1.4,-0.94 0,-0.6 0.6,-0.6 0.75,-0.6 h 14 c 0.45,0 1.04,0 1.04,0.95 0,0.39 -0.29,0.5 -0.29,0.55 -0.16,0.04 -0.25,0.04 -1.4,0.04 -1.1,0 -1.35,0 -2.59,0.1 -1.44,0.15 -1.6,0.35 -1.6,1 0,0.1 0,0.4 0.2,1.15 z"
           inkscape:connector-curvature="0"
           style="fill:#000000;fill-opacity:1;stroke-width:0" /><path
           id="path4410"
           d="m 505.61,405.35 h -1.19 c -0.1,-0.77 -0.45,-2.83 -0.9,-3.18 -0.28,-0.21 -2.97,-0.21 -3.45,-0.21 h -6.42 c 3.66,3.25 4.88,4.22 6.97,5.86 2.58,2.06 4.99,4.22 4.99,7.54 0,4.21 -3.7,6.79 -8.16,6.79 -4.33,0 -7.25,-3.03 -7.25,-6.24 0,-1.78 1.5,-1.95 1.84,-1.95 0.84,0 1.85,0.59 1.85,1.85 0,0.62 -0.24,1.85 -2.05,1.85 1.08,2.47 3.45,3.24 5.09,3.24 3.48,0 5.3,-2.72 5.3,-5.54 0,-3.04 -2.16,-5.45 -3.28,-6.7 l -8.4,-8.3 c -0.35,-0.31 -0.35,-0.38 -0.35,-1.36 h 14.36 z"
           inkscape:connector-curvature="0"
           style="fill:#000000;fill-opacity:1;stroke-width:0" /></g>    </g>
  </g>
</svg>
